<?xml version="1.0" standalone="no"?>
<!DOCTYPE svg PUBLIC "-//W3C//DTD SVG 20010904//EN"
 "http://www.w3.org/TR/2001/REC-SVG-20010904/DTD/svg10.dtd">
<svg version="1.0" xmlns="http://www.w3.org/2000/svg"
 width="1280.000000pt" height="1280.000000pt" viewBox="0 0 1280.000000 1280.000000"
 preserveAspectRatio="xMidYMid meet">

<g transform="translate(0.000000,1280.000000) scale(0.100000,-0.100000)"
fill="#000000" stroke="none">
<path d="M5620 10635 c-52 -36 -106 -74 -120 -85 -14 -10 -88 -64 -165 -119
-77 -55 -171 -123 -210 -150 -234 -168 -244 -174 -229 -149 4 7 3 8 -5 4 -6
-4 -9 -11 -6 -15 4 -7 -189 -153 -246 -186 -16 -9 -158 -113 -439 -319 -63
-46 -140 -101 -170 -122 -58 -39 -176 -126 -197 -144 -10 -8 -13 -219 -13
-990 0 -927 1 -980 18 -980 9 0 46 9 82 20 759 234 1430 344 2245 368 l240 7
3 289 c2 250 0 288 -12 283 -9 -4 -64 -41 -123 -85 -124 -90 -229 -162 -237
-162 -11 0 -5 95 7 117 7 12 125 106 262 210 138 104 372 280 520 393 149 112
362 273 475 358 113 85 217 167 233 181 l27 25 -22 22 c-13 12 -214 159 -448
326 -234 167 -499 357 -590 423 -91 65 -208 149 -260 187 -52 37 -160 115
-240 173 -212 154 -257 185 -273 185 -7 0 -55 -29 -107 -65z m18 -993 c9 -2
12 -52 12 -212 0 -209 0 -210 -22 -215 -33 -8 -382 0 -396 9 -15 9 -17 397 -2
412 7 7 364 13 408 6z m570 0 c9 -2 12 -52 12 -212 0 -209 0 -210 -22 -215
-13 -3 -106 -4 -208 -2 l-185 3 -3 204 c-1 113 -1 209 2 215 3 8 355 15 404 7z
m-560 -781 c2 -157 -1 -206 -10 -213 -19 -12 -401 -5 -410 7 -10 13 -10 399
-1 409 4 3 99 5 212 4 l206 -3 3 -204z m572 -11 l0 -210 -210 0 -210 0 0 210
0 210 210 0 210 0 0 -210z"/>
<path d="M4951 10406 c-9 -11 -9 -16 1 -22 7 -4 10 -4 6 1 -4 4 -3 14 3 22 6
7 9 13 6 13 -2 0 -10 -6 -16 -14z"/>
<path d="M4905 10370 c-3 -6 1 -7 9 -4 18 7 21 14 7 14 -6 0 -13 -4 -16 -10z"/>
<path d="M4867 10329 c7 -7 15 -10 18 -7 3 3 -2 9 -12 12 -14 6 -15 5 -6 -5z"/>
<path d="M4835 10319 c-4 -6 -5 -12 -2 -15 2 -3 7 2 10 11 7 17 1 20 -8 4z"/>
<path d="M4785 10281 c-3 -5 -2 -12 3 -15 5 -3 9 1 9 9 0 17 -3 19 -12 6z"/>
<path d="M4990 10236 c0 -2 7 -7 16 -10 8 -3 12 -2 9 4 -6 10 -25 14 -25 6z"/>
<path d="M4629 10163 c-13 -16 -12 -17 4 -4 9 7 17 15 17 17 0 8 -8 3 -21 -13z"/>
<path d="M4539 10093 c-13 -17 -13 -17 6 -3 11 8 22 16 24 17 2 2 0 3 -6 3 -6
0 -17 -8 -24 -17z"/>
<path d="M4436 10015 c-11 -8 -15 -15 -9 -15 6 0 16 7 23 15 16 19 11 19 -14
0z"/>
<path d="M7709 9290 c-123 -89 -298 -213 -387 -278 -90 -64 -212 -151 -270
-193 -271 -192 -409 -291 -437 -313 l-30 -23 -3 -334 c-2 -184 0 -344 3 -356
7 -29 14 -30 200 -43 795 -54 1560 -216 2308 -491 104 -38 193 -69 198 -69 13
0 12 1276 -1 1300 -5 10 -69 61 -142 112 -156 111 -1025 734 -1118 802 -35 25
-71 46 -81 46 -9 0 -117 -72 -240 -160z m199 -746 c3 -180 18 -165 -163 -158
-67 2 -126 4 -133 4 -9 0 -12 40 -12 153 l0 153 153 -1 152 0 3 -151z m413
144 c5 -80 -5 -294 -14 -300 -6 -3 -72 -5 -146 -3 l-136 4 -3 153 -2 153 150
3 c114 1 150 -1 151 -10z m-416 -563 l0 -150 -152 -2 -153 -2 0 155 0 155 153
-3 152 -3 0 -150z m416 5 c0 -80 -1 -148 -1 -152 0 -5 -67 -8 -150 -8 l-150 0
0 155 0 156 151 -3 151 -3 -1 -145z"/>
<path d="M4940 7636 c0 -2 7 -7 16 -10 8 -3 12 -2 9 4 -6 10 -25 14 -25 6z"/>
<path d="M4618 7553 c7 -3 16 -2 19 1 4 3 -2 6 -13 5 -11 0 -14 -3 -6 -6z"/>
<path d="M5865 7334 c-293 -18 -411 -27 -540 -40 -156 -15 -448 -51 -500 -60
-23 -4 -26 -3 -15 5 8 6 10 11 5 11 -6 0 -15 -4 -21 -10 -12 -12 -301 -63
-314 -55 -4 3 -10 2 -12 -3 -1 -4 -48 -16 -103 -25 -642 -112 -1433 -343
-2118 -616 -154 -62 -173 -73 -198 -122 -19 -37 -19 -77 -19 -1923 0 -1403 3
-1892 12 -1910 6 -14 30 -35 53 -46 41 -20 52 -20 4204 -20 3624 0 4166 2
4190 15 16 8 36 30 45 49 15 32 16 187 14 1918 l-3 1883 -27 46 c-23 40 -25
49 -13 59 11 9 17 6 31 -15 11 -17 14 -29 7 -33 -6 -5 -5 -17 4 -37 12 -26 13
-27 9 -5 -3 14 -1 32 5 40 8 11 9 9 4 -10 -4 -16 -3 -20 3 -12 7 10 12 9 23
-4 12 -15 12 -17 -1 -12 -13 5 -15 -208 -13 -1881 2 -1126 6 -1885 12 -1884 5
1 7 -6 4 -16 -3 -10 0 -22 6 -25 8 -5 11 531 11 1906 l0 1913 -60 59 c-33 33
-60 54 -60 48 0 -7 5 -12 11 -12 6 0 3 -7 -6 -16 -15 -15 -18 -15 -38 4 -60
54 -409 185 -882 331 -818 252 -1786 429 -2685 491 -153 11 -909 21 -1025 14z
m3221 -765 c100 -38 159 -109 169 -206 5 -43 4 -46 -9 -29 -15 19 -36 14 -36
-8 0 -7 9 -21 20 -31 11 -10 20 -23 20 -28 0 -6 -8 -3 -18 6 -10 10 -22 17
-25 17 -14 0 -6 -28 13 -45 11 -10 20 -23 20 -28 0 -6 -8 -3 -18 6 -10 10 -22
17 -25 17 -11 0 -8 -38 3 -45 5 -3 15 -16 21 -28 12 -21 11 -21 -8 -4 -11 9
-23 17 -26 17 -15 0 -6 -38 13 -55 11 -10 20 -23 20 -28 0 -6 -11 0 -25 13
l-25 23 0 -22 c0 -12 -4 -31 -10 -41 -8 -14 -4 -25 15 -48 31 -37 32 -48 3
-28 -46 32 -53 8 -11 -36 15 -15 22 -28 16 -28 -6 0 -16 7 -23 15 -7 8 -16 15
-21 15 -17 0 -9 -37 11 -55 11 -10 20 -22 20 -28 0 -27 -35 -76 -69 -95 -34
-19 -41 -30 -61 -94 -37 -122 -37 -122 -63 -105 -31 20 -35 72 -8 89 26 16 27
28 2 28 -47 0 -70 -96 -30 -123 l21 -15 -21 -7 c-21 -6 -21 -10 -21 -341 0
-216 -4 -334 -10 -334 -6 0 -10 120 -10 339 0 187 -4 342 -9 345 -5 3 -6 35
-4 71 3 42 0 65 -6 65 -6 0 -11 -9 -11 -20 0 -12 -7 -20 -16 -20 -12 0 -15 6
-10 26 6 21 4 25 -11 22 -15 -3 -19 -15 -21 -69 -3 -63 -2 -67 21 -73 14 -3
26 -11 28 -18 2 -7 2 -161 -1 -343 l-5 -330 -5 334 c-4 284 -7 335 -20 341
-74 34 -75 35 -78 73 -2 26 6 58 26 101 l30 64 -42 22 c-58 32 -114 88 -127
128 -13 41 -12 47 63 355 59 244 60 248 95 274 60 46 169 47 289 2z m-3470
-199 l54 0 0 -464 c0 -269 4 -486 10 -516 31 -164 142 -280 297 -310 246 -48
440 63 498 285 12 49 15 139 15 532 l0 473 121 0 121 0 -5 -502 c-4 -475 -5
-507 -25 -581 -30 -110 -75 -189 -150 -262 -71 -71 -169 -125 -272 -152 -76
-20 -279 -22 -350 -4 -65 17 -93 33 -78 43 9 5 10 8 1 8 -6 0 -15 -4 -18 -10
-3 -5 -11 -10 -16 -10 -6 0 -8 3 -6 8 3 4 -5 8 -17 8 -37 3 -151 81 -210 144
-59 64 -106 150 -133 245 -15 52 -17 126 -21 554 -2 271 -1 500 3 508 4 13 17
15 67 9 33 -3 85 -6 114 -6z m2419 -12 c140 -42 251 -135 312 -263 32 -68 37
-88 41 -175 3 -60 0 -118 -8 -151 -19 -81 -76 -184 -129 -231 -51 -46 -146
-93 -206 -103 -22 -4 -46 -8 -53 -11 -8 -2 53 -76 150 -181 255 -279 293 -323
290 -340 -2 -8 1 -12 7 -8 6 3 11 1 11 -4 0 -7 -47 -11 -137 -11 l-138 1 -230
259 -230 260 -165 -2 -165 -3 -3 -257 -2 -258 -120 0 -120 0 0 750 0 750 423
-3 c336 -3 432 -7 472 -19z m-3985 -64 c52 -8 131 -24 175 -35 82 -21 111 -30
293 -93 128 -44 182 -47 211 -10 12 15 26 45 32 68 6 22 15 51 20 64 9 24 41
29 57 10 12 -16 64 -624 66 -780 0 -64 4 -109 8 -100 5 14 7 13 7 -5 2 -45
-70 -37 -84 9 -17 56 -83 200 -123 268 -144 244 -342 389 -615 447 -61 13
-126 18 -252 17 -151 -1 -181 -4 -270 -27 -172 -46 -309 -122 -424 -234 -35
-34 -68 -60 -72 -57 -4 2 -11 -1 -15 -7 -4 -8 -3 -9 4 -5 19 11 14 -8 -7 -30
-10 -11 -24 -30 -30 -42 -7 -13 -17 -19 -23 -16 -7 4 -8 3 -4 -4 3 -6 -8 -35
-27 -64 -79 -127 -149 -309 -189 -491 -19 -90 -22 -132 -22 -352 -1 -269 7
-340 60 -522 30 -106 109 -304 140 -354 13 -20 20 -40 17 -43 -4 -3 -2 -6 4
-6 6 0 16 -13 23 -29 10 -26 8 -38 -21 -103 -17 -40 -34 -75 -38 -78 -3 -3 -7
-12 -9 -20 -8 -35 -72 -160 -82 -160 -18 0 -213 201 -276 285 -79 106 -114
162 -168 271 -208 418 -205 931 9 1369 127 262 292 450 545 621 64 43 103 64
112 59 7 -5 9 -4 5 0 -15 17 156 97 298 140 215 65 419 77 665 39z m5150 -234
c6 -11 9 -20 7 -20 -2 0 -12 9 -22 20 -10 11 -13 20 -7 20 6 0 16 -9 22 -20z
m-3937 -1179 c7 -7 7 -18 -1 -36 -10 -21 -18 -25 -55 -25 -71 0 -147 -28 -188
-69 -71 -71 -72 -79 -78 -681 l-6 -535 -59 90 c-33 50 -94 144 -136 210 -42
66 -108 168 -147 228 l-71 107 -1 153 c-1 167 -15 303 -35 351 -36 86 -117
129 -266 142 -46 4 -79 12 -86 21 -15 18 -7 51 14 55 45 9 1106 -2 1115 -11z
m-1318 -102 c17 -12 61 -60 98 -108 222 -285 427 -557 472 -627 29 -45 113
-162 185 -260 73 -99 144 -193 156 -211 26 -35 31 -48 12 -37 -7 4 -8 3 -4 -5
4 -6 11 -9 16 -6 4 3 15 -6 24 -19 15 -24 15 -26 -22 -56 -20 -17 -47 -33 -59
-36 -51 -13 -78 5 -613 421 -301 234 -288 225 -325 225 -19 0 -45 -4 -59 -10
-26 -10 -154 -106 -288 -217 -43 -36 -82 -62 -88 -58 -6 4 -9 3 -8 -2 3 -8
-29 -39 -87 -86 -309 -248 -326 -260 -379 -259 -63 1 -62 13 20 205 41 98 84
188 94 200 10 12 73 92 138 177 66 85 125 154 132 152 6 -1 9 2 5 8 -5 8 85
136 140 197 5 6 30 39 54 72 24 33 48 58 54 54 6 -3 7 -1 3 5 -6 10 37 72 162
231 55 70 112 87 167 50z m1970 -452 c54 -122 116 -258 136 -302 30 -66 122
-276 220 -504 11 -25 16 -48 11 -53 -5 -5 -44 -8 -87 -6 l-77 3 -51 113 -50
112 -209 2 c-114 2 -249 3 -299 3 l-90 0 -52 -117 -52 -118 -87 0 c-49 0 -88
4 -88 9 0 5 64 150 143 322 79 173 150 328 157 346 8 17 18 29 24 26 5 -3 6
-2 3 4 -8 13 58 165 68 155 5 -4 5 -2 1 5 -3 7 3 29 14 50 11 21 20 44 20 51
0 7 5 10 12 6 6 -4 8 -3 5 3 -4 6 3 33 15 62 l22 51 95 0 96 0 100 -223z
m2252 -71 l52 -43 -40 -48 c-21 -26 -39 -51 -39 -56 0 -5 12 -28 27 -52 36
-58 53 -118 53 -194 0 -121 -50 -212 -148 -270 l-43 -26 52 -28 c68 -38 76
-45 106 -96 35 -60 42 -153 17 -223 -27 -75 -74 -124 -157 -165 -125 -61 -264
-68 -422 -20 -113 34 -201 137 -212 251 l-6 55 79 -3 79 -3 3 -33 c2 -24 16
-47 46 -76 79 -80 220 -96 349 -39 67 30 97 70 97 130 0 98 -90 157 -260 172
-118 10 -185 30 -247 72 -95 66 -141 151 -150 280 -14 197 90 333 301 394 79
23 212 17 278 -12 l46 -21 39 49 c21 26 40 48 43 48 3 0 28 -19 57 -43z m1749
-41 c28 -12 67 -39 87 -60 36 -37 37 -38 37 -13 0 14 3 40 6 57 6 30 8 31 64
31 97 0 88 35 90 -374 0 -199 -2 -369 -5 -378 -4 -11 -23 -16 -74 -17 l-68 -2
-7 61 -7 61 -22 -28 c-42 -54 -101 -88 -180 -104 -54 -10 -171 -3 -162 11 2 4
-8 5 -23 3 -22 -4 -24 -2 -12 7 12 9 11 10 -7 5 -35 -10 -146 68 -189 132 -73
110 -86 295 -29 421 79 176 322 267 501 187z m-2920 8 c68 -23 152 -109 179
-183 18 -50 20 -80 20 -315 l0 -260 -72 -3 -73 -3 0 224 c0 182 -3 234 -17
276 -20 63 -74 115 -135 131 -45 13 -127 6 -161 -12 -15 -7 -22 -7 -29 3 -8
11 -9 10 -5 -3 6 -18 -25 -52 -38 -41 -4 5 -5 2 -1 -5 5 -7 2 -21 -7 -30 -28
-33 -31 -60 -37 -297 l-5 -240 -77 -3 -78 -3 0 386 0 385 69 0 c77 0 81 -4 81
-71 0 -42 9 -49 31 -22 21 25 112 80 150 91 54 16 151 13 205 -5z m2009 -15
c66 -34 108 -79 142 -153 l28 -60 0 -265 0 -265 -72 -3 -71 -3 -4 238 c-3 201
-7 245 -22 280 -43 101 -159 148 -270 108 -22 -8 -44 -11 -50 -8 -6 3 -8 3 -4
-2 4 -4 -6 -23 -22 -42 -57 -64 -61 -87 -63 -338 l-2 -230 -77 -3 -78 -3 0
386 0 385 69 0 c76 0 81 -5 81 -77 0 -38 9 -42 30 -13 8 11 20 20 27 20 7 0
13 5 13 11 0 6 7 9 15 5 8 -3 14 0 12 6 -1 7 23 22 53 35 76 33 192 28 265 -9z
m-5165 -483 l0 -85 -80 0 -81 0 3 77 c3 88 6 90 106 92 l52 1 0 -85z m205 69
c10 -11 15 -36 15 -85 l0 -69 -85 0 -85 0 0 83 0 83 70 2 c50 1 74 -3 85 -14z
m-205 -259 l0 -85 -80 0 -80 0 0 83 0 83 80 2 80 2 0 -85z m218 -2 l3 -82 -86
-3 -85 -3 0 86 0 85 83 0 82 -1 3 -82z m6539 -875 c-3 -8 -6 -5 -6 6 -1 11 2
17 5 13 3 -3 4 -12 1 -19z"/>
<path d="M8825 6553 c-9 -16 -14 -20 -11 -11 9 31 -22 8 -33 -24 -14 -39 -7
-49 31 -41 24 5 30 3 26 -8 -3 -8 -20 -16 -38 -19 -47 -7 -52 -30 -6 -30 48 0
38 -28 -12 -32 -48 -4 -55 -28 -8 -28 50 0 49 -28 -1 -32 -49 -4 -57 -28 -9
-28 49 0 46 -18 -4 -26 -47 -8 -58 -37 -12 -33 30 4 44 -14 15 -19 -47 -7 -63
-13 -63 -22 0 -6 16 -10 35 -10 49 0 48 -28 -2 -32 -50 -4 -57 -28 -8 -28 49
0 42 -24 -8 -28 -50 -4 -51 -32 -2 -32 53 0 47 -28 -7 -32 l-43 -3 -3 -50 c-2
-33 1 -45 7 -36 5 8 7 20 4 28 -3 7 0 13 6 13 6 0 11 -17 11 -37 0 -21 9 -53
20 -70 25 -41 46 -44 25 -3 -17 32 -20 110 -5 110 6 0 10 -17 10 -37 0 -68 74
-183 101 -156 5 5 -8 26 -31 48 -37 36 -40 43 -40 93 0 33 4 51 10 47 6 -3 10
-26 10 -49 0 -36 7 -53 41 -95 22 -28 47 -51 55 -51 20 0 18 7 -21 54 -33 41
-49 93 -38 123 11 28 23 10 23 -34 0 -42 6 -54 43 -96 32 -37 46 -47 60 -41
16 6 13 12 -24 50 -35 36 -42 49 -43 86 -1 37 2 43 19 43 17 0 21 -9 25 -53 4
-42 11 -58 30 -72 14 -10 26 -17 28 -16 2 2 -7 22 -18 45 -18 33 -21 50 -15
90 l7 49 -85 12 c-56 9 -84 17 -81 24 10 27 200 -10 262 -50 13 -9 26 -13 29
-10 22 22 -128 93 -215 102 -42 5 -62 11 -62 20 0 8 9 14 20 14 11 0 20 -6 20
-12 0 -10 2 -10 8 -1 11 17 124 -7 189 -40 29 -15 54 -23 57 -18 12 18 -129
80 -208 92 -69 10 -90 20 -68 32 21 12 159 -15 219 -42 71 -34 77 -36 68 -22
-20 34 -173 91 -242 91 -23 0 -33 5 -33 15 0 32 141 11 231 -35 46 -23 59 -26
59 -14 0 21 -129 81 -193 89 -67 8 -87 14 -87 26 0 27 184 -3 246 -41 34 -22
44 -24 44 -12 0 13 -152 82 -180 82 -51 0 -100 13 -100 26 0 10 15 12 68 8 82
-7 124 -19 180 -51 45 -26 72 -23 37 4 -43 33 -130 66 -201 76 -46 6 -73 14
-71 21 10 31 154 10 234 -35 58 -32 63 -34 63 -19 0 20 -137 77 -213 89 -57 9
-75 16 -71 26 4 9 17 12 37 10 18 -3 53 -7 78 -10 25 -3 74 -19 109 -36 34
-16 64 -28 66 -27 1 2 -14 33 -35 68 -25 44 -44 66 -59 68 -12 2 -22 -1 -22
-7 0 -6 -9 -11 -21 -11 -15 0 -19 4 -15 16 3 9 4 20 1 24 -8 13 -35 0 -35 -15
0 -17 -17 -28 -30 -20 -7 4 -7 12 0 25 7 13 7 21 -1 26 -11 7 -33 -14 -42 -40
-2 -6 -7 -8 -11 -4 -4 3 -3 16 4 27 17 32 -14 27 -39 -6 l-21 -28 6 28 c4 16
2 27 -5 27 -6 0 -18 -12 -26 -27z"/>
<path d="M7427 6163 l-47 -4 2 -272 3 -272 270 0 c305 0 343 7 409 71 59 57
80 108 80 195 1 65 -3 84 -29 134 -34 66 -94 119 -153 134 -39 10 -455 21
-535 14z"/>
<path d="M3100 6100 c-9 -6 -10 -10 -3 -10 6 0 15 5 18 10 8 12 4 12 -15 0z"/>
<path d="M2975 5749 c-4 -6 -5 -12 -2 -15 2 -3 7 2 10 11 7 17 1 20 -8 4z"/>
<path d="M3586 4413 c-6 -14 -5 -15 5 -6 7 7 10 15 7 18 -3 3 -9 -2 -12 -12z"/>
<path d="M5705 4349 c-5 -13 -34 -78 -65 -144 -31 -66 -60 -130 -64 -143 -4
-12 -11 -20 -16 -17 -4 3 -8 -1 -7 -8 1 -34 -4 -48 -15 -41 -7 4 -8 3 -4 -4 4
-7 -7 -40 -23 -74 -17 -34 -27 -65 -23 -69 4 -4 109 -5 234 -2 225 6 226 6
218 27 -23 59 -213 482 -220 490 -4 4 -11 -3 -15 -15z"/>
<path d="M7717 4094 c-93 -29 -157 -120 -157 -223 0 -108 54 -192 147 -227 68
-26 189 -16 250 22 129 80 151 259 44 365 -72 73 -176 96 -284 63z"/>
<path d="M9727 4099 c-57 -13 -91 -34 -129 -79 -84 -98 -79 -277 11 -368 61
-61 200 -82 286 -43 131 59 182 229 111 369 -31 62 -91 105 -167 121 -56 12
-60 12 -112 0z"/>
<path d="M6694 4164 c-18 -14 -18 -15 4 -4 12 6 22 13 22 15 0 8 -5 6 -26 -11z"/>
<path d="M6696 4131 c-3 -5 1 -14 8 -20 12 -10 13 -8 9 8 -6 23 -9 25 -17 12z"/>
<path d="M10442 6551 c-11 -6 -10 -10 4 -15 9 -3 19 -4 22 -1 3 3 0 5 -7 5 -7
0 -9 5 -6 10 7 12 4 12 -13 1z"/>
<path d="M10560 2626 c0 -8 5 -18 10 -21 6 -3 10 -18 9 -33 0 -24 -1 -25 -9
-7 -8 17 -9 15 -7 -9 1 -21 -4 -33 -18 -41 -11 -6 -21 -16 -23 -23 -4 -21 37
10 59 44 18 29 18 34 4 68 -16 38 -25 46 -25 22z"/>
<path d="M10534 2562 c-11 -18 -8 -42 6 -42 12 0 18 23 11 42 -6 17 -7 17 -17
0z"/>
<path d="M10485 2470 c-3 -6 1 -7 9 -4 18 7 21 14 7 14 -6 0 -13 -4 -16 -10z"/>
</g>
</svg>
